<svg width="22" height="22" viewBox="0 0 22 22" fill="none" xmlns="http://www.w3.org/2000/svg">
<circle cx="11" cy="10" r="10" fill="#EE3377"/>
<path d="M6.246 4.644V14.994C6.246 15.378 6.354 15.654 6.57 15.822C6.792 15.984 7.095 16.065 7.479 16.065C7.725 16.065 7.962 16.038 8.19 15.984C8.418 15.924 8.631 15.855 8.829 15.777L9.513 17.676C9.189 17.844 8.799 17.991 8.343 18.117C7.887 18.243 7.356 18.306 6.75 18.306C5.598 18.306 4.752 17.976 4.212 17.316C3.672 16.65 3.402 15.759 3.402 14.643V6.588H0.585V4.644H6.246ZM15.887 16.272C16.361 16.272 16.742 16.197 17.03 16.047C17.324 15.897 17.471 15.672 17.471 15.372C17.471 15.168 17.414 14.997 17.3 14.859C17.186 14.721 16.967 14.589 16.643 14.463C16.319 14.337 15.839 14.187 15.203 14.013C14.327 13.779 13.613 13.443 13.061 13.005C12.515 12.567 12.242 11.925 12.242 11.079C12.242 10.227 12.596 9.522 13.304 8.964C14.018 8.406 15.047 8.127 16.391 8.127C17.243 8.127 17.984 8.238 18.614 8.46C19.25 8.676 19.799 8.952 20.261 9.288L19.127 10.962C18.731 10.716 18.305 10.521 17.849 10.377C17.393 10.227 16.934 10.152 16.472 10.152C15.56 10.152 15.104 10.398 15.104 10.89C15.104 11.052 15.161 11.193 15.275 11.313C15.395 11.427 15.617 11.547 15.941 11.673C16.265 11.793 16.739 11.943 17.363 12.123C17.981 12.297 18.518 12.498 18.974 12.726C19.436 12.954 19.793 13.26 20.045 13.644C20.297 14.022 20.423 14.523 20.423 15.147C20.423 15.843 20.216 16.428 19.802 16.902C19.388 17.37 18.839 17.721 18.155 17.955C17.471 18.189 16.721 18.306 15.905 18.306C14.981 18.306 14.165 18.174 13.457 17.91C12.749 17.646 12.146 17.298 11.648 16.866L13.079 15.264C13.451 15.552 13.871 15.792 14.339 15.984C14.813 16.176 15.329 16.272 15.887 16.272Z" fill="black"/>
</svg>
